<?xml version="1.0" encoding="UTF-8"?>
<svg id="Layer_1" xmlns="http://www.w3.org/2000/svg" version="1.1" viewBox="0 0 1080 1080">
  <!-- Generator: Adobe Illustrator 29.2.1, SVG Export Plug-In . SVG Version: 2.1.0 Build 116)  -->
  <g id="H1HkgM.tif">
    <g>
      <path d="M1005.6,511.2c6.9.8,13.2,6.4,14.8,13.2,3,12.7,0,45.1-1.3,59.3-3.4,34.2-16.2,96.5-32.5,126.4-5.6,10.2-29.1,17.6-40.2,21.7-126.1,47-243.7,38.7-373.2,12.9-75.5-15-150.5-37.3-228.1-38.7-70.1-1.2-141.5,0-211.8,1.1-13.8.2-35.6,3.6-43.7-9.3-7.7-12.4-15.9-46.4-19.3-61.6-6.6-29.6-14-80.7-10.4-110.3s6.7-14.3,13.6-14.3l932.1-.4Z" fill="#075035"/>
      <path d="M489,323.4c53.1-56.4,127.6-110.6,195-120.8,13.6-1.1,31.3-4,37.9,10,1.8,3.9-.2-.3,7,13.8s20.3,28.1,32.4,47.9-7.3,50.1-19,66.6c-13.5,19.2-30.2,35.8-46.8,52.2l-41,34.4c74.8-33.5,157.4-46.7,239.3-39,27.4,2.6,54.4,8.7,81.4,14-31.2-100.4-98.8-189.1-186.9-246.2-157.2-101.9-360.8-98.2-513.9,9.6-75.1,52.9-135,129.8-165.6,216.6,120.8-38.7,193.3-20.5,254.6,2.9s92,48,92,48c0,0-45.2-20.5,33.6-110ZM450.6,375.4c-1.4,2.6-2.8,5.3-4,8M454.4,157.9c-13.8,2.8-10.7,25.8,5.5,22.5,13.9-2.8,10.4-25.8-5.5-22.5ZM521.4,165.9c-22.9,2.5-20.2,38.5,3.7,36.8,23.9-1.8,21.1-39.5-3.7-36.8Z" fill="#fcc210"/>
      <path d="M922.2,799.3c-62.4,85.8-173.4,162-277,186.1-136.1,31.6-279.3.2-388.6-86-4.2-3.3-33.5-27.7-34-29.9s1.3-2,2.3-2.6c58.2-37.5,160.3-42.2,226.6-30.3,127.7,22.9,239.1,70.9,370.2,22.5,51.1-17.9,100.5-59.8,100.5-59.8Z" fill="#075035"/>
      <path d="M778.2,851.4c-112.5,25.7-210.8-14-318.8-34-76.7-14.2-157.9-9-229.2,23.6-8.1,3.7-15.7,8.9-23.9,11.7-23.2-24.7-44.1-51.7-60.7-81.3,38.7-20.4,81.2-33.7,124.6-40.3,124.2-19,221.3,20.6,339.9,41.5,90.9,16,181.4,19.1,271.2-5,60.7-18.3,53.6-16.9,76.5-26.9,0,0-64.2,75-179.6,110.7Z" fill="#74b943"/>
      <path d="M996.1,491.2h-433.7l33.7-13.8c112.8-62,225-87.7,353.3-60.8,5.8,1.2,31,6.4,34.2,8.8s6.4,24.2,7.3,28.7c2.3,12.3,3.8,24.7,5.3,37.2h0Z" fill="#4aaac7"/>
      <path d="M535.1,489.7c-.8.5-15.4.2-20.7.2-68.6-.9-141.2-31.4-208.4-37.6-73.3-6.8-149.6-4.2-219.3,20.5l15-65.9c26.7-10,54.4-18,82.7-22.2,53.4-7.8,107.6-3,158.3,14.9,61.8,21.8,127.3,76.9,192.3,90.2h.1Z" fill="#4aaac7"/>
      <path d="M536.4,466.2c19.9-.7,43.3-25.8,32-46-1.3-1-15.1,9.3-17.7,10.8-15,8.7-30.4,14.1-47.3,18.2l3,8c-7.7-3-20-7.7-26.9-11.6s-5.2-3.2-10-6c2.5,0,9.8-.2,12.3-.5,76.4-9.5,200-106.4,236-173.7,3.8-7.1,6.5-14.7,10-22,9.7,13.2,21.5,25.3,29.4,39.5.7,6.4-.3,11.7-2.2,17.7-17.8,55.9-119.4,135.4-171.6,160.1-15.5,7.3-30.1,11.2-47,5.5ZM727.3,269.5c-.6.4-4.2,10.5-5.2,12.3-6.1,12-13.5,23.5-22.3,33.6-3,3.4-12.5,11.1-14,13.9s4.8,4.8,6.7,5.3c29.5,8.8,60.7-34.4,42.6-59.6-1.2-1.6-5.6-7.1-7.8-5.6h0ZM600.4,400.3c1.5,5.2,8.9,9.2,13.9,10.5,30.5,7.9,69.9-28.4,49-58.5-7.6,6.3-13.2,14.4-20.4,21-12.1,11-27.5,20.7-42.5,27Z" fill="#075035"/>
      <path d="M690.1,209.8c57.8-3.6,10.3,63.4-5.8,83.1-39.2,47.8-140.7,128.5-203.3,133.4-65.5,5.1-7.8-70.4,10-90.9,39.6-45.5,137.9-121.8,199.2-125.6h-.1ZM684.1,221.7c-64,2.3-184.7,98.5-212.2,155.6-18.7,38.7,10,37.6,38.3,29.3,60.5-17.7,146.3-83.5,180.1-136.6,10.2-16.1,28.4-49.4-6.2-48.2h0Z" fill="#075035"/>
      <path d="M84.6,491.2c2.9-2.2,8.4-4.1,12.2-5.3,78.6-24.8,193.3-19.1,273.6-4.3,12.4,2.3,26.8,4.9,38.9,8s3.2,0,3,1.5H84.6Z" fill="#4aaac7"/>
      <path d="M363.5,385.3c-5.9-13-13.8-25.7-16-40,25.8,10.7,54.1,20.8,82.3,13.9l18.8,23.5c-1.9,4.3-3.3,8.5-4.3,13.1-3.6,2.1-9.8,4.6-12.5,4.6l-18.2,1.1c-2,0-22.8-4.8-25.3-5.3-8.9-1.9-16.7-7.8-25-11h0Z" fill="#74b943"/>
      <path d="M506.4,457.3l-3-8.1c16.8-4.1,32.3-9.4,47.3-18.1,2.6-1.5,15.8-11.8,17.7-11,11.3,20.2-12.1,45.4-32,46.2-8,.3-22.2-6-30-9Z" fill="#fcc210"/>
      <path d="M489.2,323.2c-12.3,14.2-28,34.8-36.8,51.2-1.7-.8-4.9-4.7-4.8-6.3s7.3-15.1,8.6-18.4c6.4-16.7,10-35.3,10.3-53.2,8.9,7.6,22.7,26.7,22.7,26.7Z" fill="#74b943"/>
      <polygon points="199.6 726 135.2 754 122.7 727.5 199.6 726" fill="#069870"/>
      <path d="M442.7,404.4c-.2,5.8.5,14.3,4.2,19.2l8.6,9.7c-16.5-8.7-32.7-18-49-27,3.8,0,13,.9,20,0,11.5-1.7,16.2-1.9,16.2-1.9Z" fill="#74b943"/>
      <path d="M443.5,396.3c-.6,2.7-.9,5.2-1,8-2.4.2-7,1.5-20.3,2.3s-11.2.2-15.7-.3c-6-3.3-12.3-6.3-18.1-10,2.5.5,17.4,2.9,30.2,2.8s21.1-1.5,24.9-2.8Z" fill="#fcc210"/>
      <path d="M369.2,346.8c-3.9-1.3-24.5-9-25.6-11.5-2.4-5.7-4.5-28.2-5.1-35.4-1.7-19.5-1.2-39,1-58.4,30.2-.7,60.9,6.9,86.5,23-.8,21.9-2.6,47-9.1,67.9,0,0-22.3-27.7-32.9-39-1.7-1.8-2.7-2.9-6.8-5.5l49,64.8c.4.8-26.4,5.5-56.9-5.9Z" fill="#74b943"/>
      <path d="M441.6,361.2c-.1,0-1.3-1.5-2.1-2.4-2.3-2.6-17.9-22.2-17.9-22.2.8-.4,4.1-8.4,4.9-10.8,5.7-17.5,6.5-38.1,7-56.5,1.1-1.2,14.7,9.6,16.5,11,3,2.5,9.3,6.8,9.6,10.5-2,21.3-4.8,49.3-15.9,68.2-.6.9-1.3,2.2-2.1,2.2Z" fill="#74b943"/>
      <path d="M523.2,164.7c24.8-2.7,27.6,35,3.7,36.8-23.9,1.8-26.6-34.3-3.7-36.8Z" fill="#fff"/>
      <path d="M456.2,156.7c15.9-3.3,19.4,19.7,5.5,22.5-16.2,3.3-19.3-19.7-5.5-22.5Z" fill="#fff"/>
      <path d="M600.4,400.3c15-6.3,30.4-16,42.5-27,7.3-6.6,12.9-14.7,20.4-21,20.8,30.1-18.5,66.4-49,58.5-5-1.3-12.5-5.3-13.9-10.5Z" fill="#fcc210"/>
      <path d="M727.3,269.5c2.2-1.5,6.6,4,7.8,5.6,18.1,25.2-13.1,68.4-42.6,59.6-1.9-.6-8.2-2.6-6.7-5.3s11.1-10.5,14-13.9c8.8-10.2,16.2-21.6,22.3-33.6.9-1.8,4.6-11.9,5.2-12.3h0Z" fill="#fcc210"/>
      <path d="M684.1,221.7c34.6-1.2,16.4,32.1,6.2,48.2-33.8,53.2-119.6,118.9-180.1,136.6-28.3,8.3-57,9.4-38.3-29.3,27.5-57,148.2-153.3,212.2-155.6h0Z" fill="#74b943"/>
    </g>
  </g>
  <g>
    <path d="M157.7,662.5c-7.9-1.5-13.9-3.2-18.1-5.2v-27.3h30.4c0,2.9.6,4.9,1.9,6.2,1.3,1.3,3.6,1.9,7,1.9s4.9-.4,6.1-1.3c1.2-.9,1.9-2.2,1.9-3.9s-.6-2.7-1.8-3.8c-1.2-1.1-3.3-2.1-6.2-3.2l-11.9-4.1c-10.2-3.9-17.5-8.4-22-13.7-4.5-5.2-6.7-12.3-6.7-21.2s3.6-19.1,10.7-24.8c7.1-5.7,19-8.5,35.7-8.5s15.5.8,22.6,2.4c7,1.6,12.7,3.7,17,6.4v24.7h-27.6c0-4.6-2.9-6.9-8.6-6.9s-4.7.3-5.9,1c-1.2.7-1.7,1.9-1.7,3.7s.7,2.8,2,3.7c1.3.9,3.5,1.9,6.6,2.9l12,4.1c9.7,3.3,16.9,7.6,21.3,12.9,4.5,5.3,6.7,12.2,6.7,20.8s-3.9,20.5-11.8,26.5c-7.9,6-19.4,9-34.6,9s-17.2-.8-25-2.3Z" fill="#fff"/>
    <path d="M334.2,640.2h5.5v22.6h-54.1v-22.6h8.3l-2.2-11h-18.8l-2.2,11h8.3v22.6h-47.2v-22.6h5.5l23.3-84.7h50.2l23.3,84.7ZM276,614.5h12.7l-5.7-27.5h-1.4l-5.7,27.5Z" fill="#fff"/>
    <path d="M496.3,578.1h-6.9v62.1h6.9v22.6h-52.1v-22.6h6.6v-48.3l-23.5,70.9h-20.4l-24.1-70.2v47.6h6.6v22.6h-45.2v-22.6h6.9v-62.1h-6.9v-22.6h63.2l14.3,43,13.8-43h60.8v22.6Z" fill="#fff"/>
    <path d="M501.8,640.2h6.9v-62.1h-6.9v-22.6h63.3c11.5,0,20.5,2.3,26.9,7,6.4,4.7,9.7,11.4,9.7,20.1s-1.3,10-3.9,13.7c-2.6,3.7-5.6,6.5-9,8.4-3.4,1.9-6.8,3.2-10,3.8v1.4c6.5.6,12.4,2.7,17.7,6.2,5.2,3.5,7.9,9.8,7.9,18.8s-3.6,16.7-10.9,21.2c-7.3,4.5-16.7,6.7-28.3,6.7h-63.3v-22.6ZM554.8,600.7c2.7,0,4.7-.7,6-2.1,1.3-1.4,2-3.7,2-6.7v-5c0-3-.7-5.3-2-6.7-1.3-1.4-3.3-2.1-6-2.1h-7.5v22.6h7.5ZM555.7,640.2c2.7,0,4.7-.7,6-2.1,1.3-1.4,2-3.7,2-6.7v-6.1c0-3-.7-5.3-2-6.7-1.3-1.4-3.3-2.1-6-2.1h-8.4v23.7h8.4Z" fill="#fff"/>
    <path d="M710,640.2h5.5v22.6h-54.1v-22.6h8.3l-2.2-11h-18.8l-2.2,11h8.3v22.6h-47.2v-22.6h5.5l23.3-84.7h50.2l23.3,84.7ZM651.7,614.5h12.7l-5.7-27.5h-1.4l-5.7,27.5Z" fill="#fff"/>
    <path d="M823.2,640.2h6.9v22.6h-37.7l-20.7-42.8-6.3,5.2v14.9h6.6v22.6h-52.1v-22.6h6.9v-62.1h-6.9v-22.6h52.1v22.6h-6.6v18.2l21.4-18.2h-8.7v-22.6h51.3v22.6h-6.9l-23,19,23.7,43Z" fill="#fff"/>
    <path d="M895.4,555.5h42.4v22.6h-5.5l-26.6,47.7v14.3h6.9v22.6h-52.4v-22.6h6.9v-14.3l-27.5-47.7h-5.5v-22.6h53.4v22.6h-4.8l8.1,21.4h1.4l8.1-21.4h-4.8v-22.6Z" fill="#fff"/>
  </g>
</svg>